{
  "accessors": [
    {
      "bufferView": 2,
      "componentType": 5126,
      "count": 4905,
      "max": [
        2.4913780689239502,
        2.1322500705718994,
        4.8625698089599609
      ],
      "min": [
        -5.7030930519104004,
        -5.9954137802124023,
        1.6242879629135132
      ],
      "type": "VEC3"
    },
    {
      "bufferView": 2,
      "byteOffset": 58860,
      "componentType": 5126,
      "count": 4905,
      "max": [
        1,
        1,
        1
      ],
      "min": [
        -1,
        -1,
        -1
      ],
      "type": "VEC3"
    },
    {
      "bufferView": 1,
      "componentType": 5126,
      "count": 4905,
      "max": [
        1,
        1
      ],
      "min": [
        0,
        0
      ],
      "type": "VEC2"
    },
    {
      "bufferView": 0,
      "componentType": 5125,
      "count": 7479,
      "max": [
        4904
      ],
      "min": [
        0
      ],
      "type": "SCALAR"
    },
    {
      "bufferView": 2,
      "byteOffset": 117720,
      "componentType": 5126,
      "count": 6519,
      "max": [
        2.4908709526062012,
        2.1748590469360352,
        4.8705930709838867
      ],
      "min": [
        -5.7025861740112305,
        -5.998103141784668,
        1.6121230125427246
      ],
      "type": "VEC3"
    },
    {
      "bufferView": 2,
      "byteOffset": 195948,
      "componentType": 5126,
      "count": 6519,
      "max": [
        1,
        1,
        1
      ],
      "min": [
        -1,
        -1,
        -1
      ],
      "type": "VEC3"
    },
    {
      "bufferView": 1,
      "byteOffset": 39240,
      "componentType": 5126,
      "count": 6519,
      "max": [
        1,
        1
      ],
      "min": [
        0,
        -0
      ],
      "type": "VEC2"
    },
    {
      "bufferView": 0,
      "byteOffset": 29916,
      "componentType": 5125,
      "count": 14280,
      "max": [
        6518
      ],
      "min": [
        0
      ],
      "type": "SCALAR"
    },
    {
      "bufferView": 2,
      "byteOffset": 274176,
      "componentType": 5126,
      "count": 6312,
      "max": [
        2.4908709526062012,
        1.508025050163269,
        4.8705930709838867
      ],
      "min": [
        -5.7025861740112305,
        -5.9957571029663086,
        1.8848550319671631
      ],
      "type": "VEC3"
    },
    {
      "bufferView": 2,
      "byteOffset": 349920,
      "componentType": 5126,
      "count": 6312,
      "max": [
        1,
        1,
        1
      ],
      "min": [
        -1,
        -1,
        -1
      ],
      "type": "VEC3"
    },
    {
      "bufferView": 1,
      "byteOffset": 91392,
      "componentType": 5126,
      "count": 6312,
      "max": [
        1,
        1
      ],
      "min": [
        0,
        -0
      ],
      "type": "VEC2"
    },
    {
      "bufferView": 0,
      "byteOffset": 87036,
      "componentType": 5125,
      "count": 14919,
      "max": [
        6311
      ],
      "min": [
        0
      ],
      "type": "SCALAR"
    },
    {
      "bufferView": 2,
      "byteOffset": 425664,
      "componentType": 5126,
      "count": 3772,
      "max": [
        -0.46632799506187439,
        1.0486940145492554,
        3.9055380821228027
      ],
      "min": [
        -2.7625041007995605,
        -4.190697193145752,
        1.6264790296554565
      ],
      "type": "VEC3"
    },
    {
      "bufferView": 2,
      "byteOffset": 470928,
      "componentType": 5126,
      "count": 3772,
      "max": [
        1,
        1,
        1
      ],
      "min": [
        -1,
        -1,
        -1
      ],
      "type": "VEC3"
    },
    {
      "bufferView": 1,
      "byteOffset": 141888,
      "componentType": 5126,
      "count": 3772,
      "max": [
        0.91373097896575928,
        1
      ],
      "min": [
        0,
        -0
      ],
      "type": "VEC2"
    },
    {
      "bufferView": 0,
      "byteOffset": 146712,
      "componentType": 5125,
      "count": 13602,
      "max": [
        3771
      ],
      "min": [
        0
      ],
      "type": "SCALAR"
    },
    {
      "bufferView": 2,
      "byteOffset": 516192,
      "componentType": 5126,
      "count": 3359,
      "max": [
        2.4143829345703125,
        2.1322500705718994,
        4.0657820701599121
      ],
      "min": [
        -5.6260981559753418,
        -5.9878048896789551,
        1.6868089437484741
      ],
      "type": "VEC3"
    },
    {
      "bufferView": 2,
      "byteOffset": 556500,
      "componentType": 5126,
      "count": 3359,
      "max": [
        1,
        1,
        0.99999874830245972
      ],
      "min": [
        -1,
        -0.99098777770996094,
        -0.99997085332870483
      ],
      "type": "VEC3"
    },
    {
      "bufferView": 1,
      "byteOffset": 172064,
      "componentType": 5126,
      "count": 3359,
      "max": [
        1,
        1
      ],
      "min": [
        0,
        0
      ],
      "type": "VEC2"
    },
    {
      "bufferView": 0,
      "byteOffset": 201120,
      "componentType": 5125,
      "count": 10890,
      "max": [
        3358
      ],
      "min": [
        0
      ],
      "type": "SCALAR"
    }
  ],
  "asset": {
    "extras": {
      "author": "bwedge87 (https://sketchfab.com/bwedge87)",
      "license": "CC-BY-4.0 (http://creativecommons.org/licenses/by/4.0/)",
      "source": "https://sketchfab.com/3d-models/simple-spaceship-72c54cdacfc3469498ee2a92c0325770",
      "title": "Simple Spaceship"
    },
    "generator": "Sketchfab-9.6.0",
    "version": "2.0"
  },
  "bufferViews": [
    {
      "buffer": 0,
      "byteLength": 244680,
      "byteOffset": 0,
      "name": "floatBufferViews",
      "target": 34963
    },
    {
      "buffer": 0,
      "byteLength": 198936,
      "byteOffset": 244680,
      "byteStride": 8,
      "name": "floatBufferViews",
      "target": 34962
    },
    {
      "buffer": 0,
      "byteLength": 596808,
      "byteOffset": 443616,
      "byteStride": 12,
      "name": "floatBufferViews",
      "target": 34962
    }
  ],
  "buffers": [
    {
      "byteLength": 1040424,
      "uri": "scene.bin"
    }
  ],
  "materials": [
    {
      "doubleSided": true,
      "emissiveFactor": [
        0,
        0,
        0
      ],
      "name": "initialShadingGroup",
      "pbrMetallicRoughness": {
        "baseColorFactor": [
          0.48812390176872239,
          0.48812390176872239,
          0.48812390176872239,
          1
        ],
        "metallicFactor": 1,
        "roughnessFactor": 0.59999999999999998
      }
    }
  ],
  "meshes": [
    {
      "primitives": [
        {
          "attributes": {
            "NORMAL": 1,
            "POSITION": 0,
            "TEXCOORD_0": 2
          },
          "indices": 3,
          "material": 0,
          "mode": 4
        }
      ]
    },
    {
      "primitives": [
        {
          "attributes": {
            "NORMAL": 5,
            "POSITION": 4,
            "TEXCOORD_0": 6
          },
          "indices": 7,
          "material": 0,
          "mode": 4
        }
      ]
    },
    {
      "primitives": [
        {
          "attributes": {
            "NORMAL": 9,
            "POSITION": 8,
            "TEXCOORD_0": 10
          },
          "indices": 11,
          "material": 0,
          "mode": 4
        }
      ]
    },
    {
      "primitives": [
        {
          "attributes": {
            "NORMAL": 13,
            "POSITION": 12,
            "TEXCOORD_0": 14
          },
          "indices": 15,
          "material": 0,
          "mode": 4
        }
      ]
    },
    {
      "primitives": [
        {
          "attributes": {
            "NORMAL": 17,
            "POSITION": 16,
            "TEXCOORD_0": 18
          },
          "indices": 19,
          "material": 0,
          "mode": 4
        }
      ]
    }
  ],
  "nodes": [
    {
      "children": [
        1
      ],
      "name": "RootNode (gltf orientation matrix)",
      "rotation": [
        -0.70710678118654746,
        -0,
        -0,
        0.70710678118654757
      ]
    },
    {
      "children": [
        2
      ],
      "name": "RootNode (model correction matrix)"
    },
    {
      "children": [
        3,
        4,
        5,
        6,
        7
      ],
      "name": "wedge_OBJ.obj.cleaner.materialmerger.gles"
    },
    {
      "mesh": 0,
      "name": ""
    },
    {
      "mesh": 1,
      "name": ""
    },
    {
      "mesh": 2,
      "name": ""
    },
    {
      "mesh": 3,
      "name": ""
    },
    {
      "mesh": 4,
      "name": ""
    }
  ],
  "scene": 0,
  "scenes": [
    {
      "name": "OSG_Scene",
      "nodes": [
        0
      ]
    }
  ]
}

